<svg width="16" height="16" viewBox="0 0 16 16" fill="none" xmlns="http://www.w3.org/2000/svg">
<path fill-rule="evenodd" clip-rule="evenodd" d="M4.53025 1.86383C4.82314 1.57093 4.82314 1.09606 4.53025 0.803166C4.23736 0.510273 3.76248 0.510273 3.46959 0.803166L0.802922 3.46983C0.66227 3.61048 0.583252 3.80125 0.583252 4.00016C0.583252 4.19907 0.66227 4.38984 0.802922 4.53049L3.46959 7.19716C3.76248 7.49005 4.23736 7.49005 4.53025 7.19716C4.82314 6.90427 4.82314 6.42939 4.53025 6.1365L3.14391 4.75016H10.6666C11.0808 4.75016 11.4166 4.41438 11.4166 4.00016C11.4166 3.58595 11.0808 3.25016 10.6666 3.25016H3.14391L4.53025 1.86383ZM11.4696 9.86383C11.1767 9.57093 11.1767 9.09606 11.4696 8.80317C11.7625 8.51027 12.2374 8.51027 12.5303 8.80317L15.1969 11.4698C15.4898 11.7627 15.4898 12.2376 15.1969 12.5305L12.5303 15.1972C12.2374 15.4901 11.7625 15.4901 11.4696 15.1972C11.1767 14.9043 11.1767 14.4294 11.4696 14.1365L12.8559 12.7502H5.33325C4.91904 12.7502 4.58325 12.4144 4.58325 12.0002C4.58325 11.5859 4.91904 11.2502 5.33325 11.2502H12.8559L11.4696 9.86383Z" fill="white" fill-opacity="0.24"/>
</svg>
